<?xml version="1.0" standalone="no"?><svg viewBox="0 0 1024 1024" version="1.1" xmlns="http://www.w3.org/2000/svg" width="200" height="200"><path d="M512 486c-87.8 0-159.2-71.4-159.2-159.2S424.2 167.6 512 167.6s159.2 71.4 159.2 159.2S599.8 486 512 486z m0-238.4c-43.7 0-79.2 35.5-79.2 79.2S468.3 406 512 406s79.2-35.5 79.2-79.2-35.5-79.2-79.2-79.2zM246 858.4c-22.1 0-40-17.9-40-40V702.2c0-98.7 80.3-179 179-179h254c98.7 0 179 80.3 179 179v116.2c0 22.1-17.9 40-40 40s-40-17.9-40-40V702.2c0-54.6-44.4-99-99-99H385c-54.6 0-99 44.4-99 99v116.2c0 22.1-17.9 40-40 40z" fill="#DE868F"/><path d="M762.8 85.4l49.4 100.1 110.5 16.1c30.2 4.4 42.2 41.5 20.4 62.8l-80 77.9 18.9 110.1c5.2 30.1-26.4 53-53.4 38.8l-98.8-51.9-98.8 51.9c-27 14.2-58.6-8.7-53.4-38.8l18.9-110.1-80-77.9c-21.9-21.3-9.8-58.4 20.4-62.8l110.5-16.1 49.4-100.1c13.5-27.4 52.5-27.4 66 0z" fill="#DE868F"/></svg>
