<?xml version="1.0" standalone="no"?><!DOCTYPE svg PUBLIC "-//W3C//DTD SVG 1.1//EN" "http://www.w3.org/Graphics/SVG/1.1/DTD/svg11.dtd"><svg t="1779782838701" class="icon" viewBox="0 0 1024 1024" version="1.1" xmlns="http://www.w3.org/2000/svg" p-id="1217" xmlns:xlink="http://www.w3.org/1999/xlink" width="200" height="200"><path d="M778.7 97.2H247.3C165 97.2 98 164.3 98 246.7v532.2c0 82.4 67 149.4 149.3 149.4h531.5c82.3 0 149.3-67 149.3-149.4V246.7C928 164.3 861 97.2 778.7 97.2z m-452.2 79.9h373.1v83.7H331.9c-2.9 0-5.5-2.6-5.5-5.5v-78.2z m373 671.3h-373v-225h373.1v225z m148.7-69.6c0 38.1-30.8 69.2-68.8 69.5V612.9c0-38.3-31.1-69.4-69.3-69.4H316c-38.2 0-69.3 31.1-69.3 69.4v235.4c-38-0.3-68.8-31.4-68.8-69.5V246.7c0-38.1 30.8-69.2 68.8-69.5v78.2c0 47.1 38.3 85.4 85.3 85.4h378c38.2 0 69.3-31.1 69.3-69.4v-94.2c38 0.3 68.8 31.4 68.8 69.5v532.1z" p-id="1218" fill="#2c2c2c"></path></svg>