<?xml version="1.0" standalone="no"?><!DOCTYPE svg PUBLIC "-//W3C//DTD SVG 1.1//EN" "http://www.w3.org/Graphics/SVG/1.1/DTD/svg11.dtd"><svg t="1779375487047" class="icon" viewBox="0 0 1024 1024" version="1.1" xmlns="http://www.w3.org/2000/svg" p-id="4215" xmlns:xlink="http://www.w3.org/1999/xlink" width="200" height="200"><path d="M768.455111 57.344A81.92 81.92 0 0 1 841.955556 138.752V398.222222h-91.022223V147.911111H441.230222A236.487111 236.487111 0 0 0 204.8 384.341333V830.577778H398.222222v91.022222H195.697778l-8.419556-0.455111A81.92 81.92 0 0 1 113.777778 839.736889V384.341333A327.452444 327.452444 0 0 1 441.230222 56.888889h318.862222l8.362667 0.455111zM398.222222 682.666667H312.888889a28.444444 28.444444 0 0 1 0-56.888889H398.222222v56.888889z m0-170.666667H312.888889a28.444444 28.444444 0 0 1 0-56.888889H398.222222v56.888889z m142.222222-227.555556a28.444444 28.444444 0 0 1 0 56.888889h-227.555555a28.444444 28.444444 0 0 1 0-56.888889h227.555555z" p-id="4216" fill="#DE868F"></path><path d="M853.333333 455.111111a113.777778 113.777778 0 0 1 113.777778 113.777778v284.444444a113.777778 113.777778 0 0 1-113.777778 113.777778h-284.444444a113.777778 113.777778 0 0 1-113.777778-113.777778v-284.444444a113.777778 113.777778 0 0 1 113.777778-113.777778h284.444444z m-139.207111 92.501333c-0.512-2.616889-5.518222-2.616889-6.030222 0-5.461333 29.127111-19.114667 85.219556-47.217778 113.265778-28.046222 28.103111-84.138667 41.756444-113.265778 47.217778-2.616889 0.512-2.616889 5.518222 0 6.030222 29.127111 5.461333 85.219556 19.114667 113.265778 47.217778 28.103111 28.046222 41.756444 84.138667 47.217778 113.265778 0.512 2.616889 5.518222 2.616889 6.030222 0 5.461333-29.127111 19.114667-85.219556 47.217778-113.265778 28.046222-28.103111 84.138667-41.756444 113.265778-47.217778 2.616889-0.512 2.616889-5.518222 0-6.030222-29.127111-5.461333-85.219556-19.114667-113.265778-47.217778-28.103111-28.046222-41.756444-84.138667-47.217778-113.265778z" p-id="4217" fill="#DE868F"></path></svg>