<?xml version="1.0" standalone="no"?>
<svg class="icon" viewBox="0 0 1024 1024" version="1.1" xmlns="http://www.w3.org/2000/svg" width="200" height="200">
  <path d="M361.927 170.667c30.549 0 58.453 17.237 72.107 44.544l30.122 60.245h95.688l30.122-60.245a80.64 80.64 0 0 1 72.107-44.544h92.871c78.507 0 142.222 63.715 142.222 142.222v426.667c0 78.507-63.715 142.222-142.222 142.222H269.056c-78.507 0-142.222-63.715-142.222-142.222V312.889c0-78.507 63.715-142.222 142.222-142.222h92.871z m393.017 85.333H662.073l-44.544 89.088a28.444 28.444 0 0 1-25.457 15.701H431.928a28.444 28.444 0 0 1-25.457-15.701L361.927 256H269.056c-31.403 0-56.889 25.486-56.889 56.889v426.667c0 31.403 25.486 56.889 56.889 56.889h485.888c31.403 0 56.889-25.486 56.889-56.889V312.889c0-31.403-25.486-56.889-56.889-56.889z" fill="#DE868F"/>
  <path d="M512 384c94.257 0 170.667 76.41 170.667 170.667S606.257 725.333 512 725.333s-170.667-76.41-170.667-170.666S417.743 384 512 384z m0 85.333a85.333 85.333 0 1 0 0 170.667 85.333 85.333 0 0 0 0-170.667zM704 341.333a42.667 42.667 0 1 1 0 85.334 42.667 42.667 0 0 1 0-85.334z" fill="#DE868F"/>
</svg>
