<?xml version="1.0" standalone="no"?><!DOCTYPE svg PUBLIC "-//W3C//DTD SVG 1.1//EN" "http://www.w3.org/Graphics/SVG/1.1/DTD/svg11.dtd"><svg t="1779547334604" class="icon" viewBox="0 0 1024 1024" version="1.1" xmlns="http://www.w3.org/2000/svg" p-id="1372" xmlns:xlink="http://www.w3.org/1999/xlink" width="200" height="200"><path d="M1018.752 526.72s-4.288-12.352-8.576-16.448l-21.312-41.088c-21.312-32.832-51.2-73.92-93.888-119.04-81.024-86.272-209.024-176.64-384-176.64-174.912 0-302.912 90.368-384 176.64A830.656 830.656 0 0 0 33.152 469.12c-8.576 16.448-17.088 28.8-21.376 41.088-4.224 4.096-8.512 16.384-8.512 16.384-4.288 12.352-4.288 24.64 0 32.896 0 0 4.288 12.288 8.512 16.384l21.376 41.088c21.312 32.832 51.2 73.92 93.824 119.04 81.088 86.272 209.088 176.64 384 176.64 174.976 0 302.976-90.368 384-176.64a830.656 830.656 0 0 0 93.888-119.04c8.512-16.448 17.088-28.8 21.312-41.088 4.288-4.096 8.576-16.384 8.576-16.384a43.776 43.776 0 0 0 0-32.896z m-102.4 45.12a689.92 689.92 0 0 1-81.088 106.816c-76.8 78.016-183.488 151.936-324.288 151.936s-247.424-73.92-324.224-151.936c-38.4-36.992-64-78.08-81.088-106.816-8.512-12.288-12.8-20.48-17.088-28.736 4.288-8.192 8.576-16.448 17.088-28.8 21.312-28.672 46.912-69.76 81.088-106.688 76.8-78.08 183.424-152 324.224-152 140.8 0 247.488 73.92 324.288 152 38.4 36.928 64 78.016 81.088 106.752 8.512 12.288 12.8 20.48 17.024 28.8-4.224 8.128-12.8 16.384-17.024 28.672zM510.976 395.264c-76.8 0-145.024 65.728-145.024 147.84 0 82.112 68.224 147.84 145.024 147.84s145.088-65.728 145.088-147.84c0-82.112-68.288-147.84-145.088-147.84z m-230.4 147.84c0-123.2 102.4-229.952 230.4-229.952s230.4 106.752 230.4 229.952-102.4 229.952-230.4 229.952-230.4-106.752-230.4-229.952z" p-id="1373" fill="#515151"></path></svg>
