<?xml version="1.0" standalone="no"?><!DOCTYPE svg PUBLIC "-//W3C//DTD SVG 1.1//EN" "http://www.w3.org/Graphics/SVG/1.1/DTD/svg11.dtd"><svg t="1779547325710" class="icon" viewBox="0 0 1024 1024" version="1.1" xmlns="http://www.w3.org/2000/svg" p-id="1169" xmlns:xlink="http://www.w3.org/1999/xlink" width="200" height="200"><path d="M512.02624 266.688a396.8 396.8 0 0 0-57.6 4.16 42.496 42.496 0 0 1-48.64-34.56 41.28 41.28 0 0 1 35.84-46.72c22.656-3.264 46.08-5.056 70.4-5.056 175.36 0 303.36 91.072 385.28 177.792a761.024 761.024 0 0 1 114.88 159.168c2.56 4.864 5.056 9.792 7.488 14.72l0.384 0.96 0.192 0.32v0.064l-38.976 16.768 39.04 16.704-0.064 0.128-0.064 0.256-0.384 0.704c-7.04 14.208-14.528 28.096-22.592 41.664-20.16 33.728-42.816 65.92-67.84 96.192a43.776 43.776 0 0 1-59.584 6.144 40.064 40.064 0 0 1-7.232-57.28c26.88-32.576 50.752-67.52 71.168-104.512a678.976 678.976 0 0 0-99.52-136.64C760.92224 340.032 654.10624 266.688 512.02624 266.688z m469.312 287.616l38.976 16.704a39.808 39.808 0 0 0 0-33.408l-39.04 16.704zM186.90624 359.68a40.448 40.448 0 0 1 13.952 28.416 40.256 40.256 0 0 1-11.136 29.568A679.168 679.168 0 0 0 90.26624 554.304c27.328 49.536 60.8 95.488 99.52 136.704C263.13024 768.576 369.94624 841.92 512.02624 841.92a394.816 394.816 0 0 0 134.4-23.232 43.136 43.136 0 0 1 54.016 24.384 40.64 40.64 0 0 1-24.192 52.48A483.2 483.2 0 0 1 512.02624 924.16c-175.36 0-303.36-91.008-385.28-177.792A760.896 760.896 0 0 1 11.86624 587.136a508.8 508.8 0 0 1-7.488-14.72L3.93024 571.52 3.86624 571.136v-0.128l38.912-16.64-39.04-16.768 0.064-0.128 0.128-0.32 0.448-0.96 1.6-3.2c8.832-17.472 18.56-34.56 28.864-51.2A763.52 763.52 0 0 1 126.74624 362.368a43.328 43.328 0 0 1 29.568-13.376 43.52 43.52 0 0 1 30.72 10.688zM42.71424 554.24L3.67424 537.6a39.808 39.808 0 0 0 0 33.408l39.04-16.64zM469.78624 364.544c0-22.784 19.008-41.28 42.432-41.28 128.128 0 229.184 104.384 229.184 229.888 0 14.72-8.064 28.352-21.184 35.776a43.52 43.52 0 0 1-42.496 0 41.088 41.088 0 0 1-21.184-35.776c0-82.88-66.112-147.328-144.32-147.328a41.856 41.856 0 0 1-42.432-41.28zM338.90624 471.552a41.28 41.28 0 0 1 32.576 49.024 151.04 151.04 0 0 0-3.52 32.64c0 82.88 66.112 147.328 144.32 147.328 11.2 0 22.08-1.28 32.448-3.712a42.496 42.496 0 0 1 51.2 30.4 41.152 41.152 0 0 1-31.232 49.792 229.12 229.12 0 0 1-52.48 6.016c-128 0-229.12-104.384-229.12-229.952 0-17.024 1.792-33.792 5.376-49.92a41.28 41.28 0 0 1 18.496-25.984 43.264 43.264 0 0 1 31.936-5.696z m-238.72-360.256a43.328 43.328 0 0 1 60.032 0l764.096 742.848a40.448 40.448 0 0 1-0.512 57.856 43.328 43.328 0 0 1-59.52 0.512L100.25024 169.664a40.448 40.448 0 0 1 0-58.368z" p-id="1170" fill="#515151"></path></svg>
