<?xml version="1.0" standalone="no"?><!DOCTYPE svg PUBLIC "-//W3C//DTD SVG 1.1//EN" "http://www.w3.org/Graphics/SVG/1.1/DTD/svg11.dtd"><svg t="1779375164020" class="icon" viewBox="0 0 1024 1024" version="1.1" xmlns="http://www.w3.org/2000/svg" p-id="1203" xmlns:xlink="http://www.w3.org/1999/xlink" width="200" height="200"><path d="M911.2 668H400.8c-24.8 0-44.8-21.6-44.8-48s20-48 44.8-48h510.4c24.8 0 44.8 21.6 44.8 48s-20 48-44.8 48z m0-224H400.8c-24.8 0-44.8-21.6-44.8-48s20-48 44.8-48h510.4c24.8 0 44.8 21.6 44.8 48s-20 48-44.8 48zM908 228H124c-26.4 0-48-21.6-48-48s21.6-48 48-48h784c26.4 0 48 21.6 48 48s-21.6 48-48 48zM300 668L76 508l224-160v320zM124 788h784c26.4 0 48 21.6 48 48s-21.6 48-48 48H124c-26.4 0-48-21.6-48-48s21.6-48 48-48z" fill="#DE868F" p-id="1204"></path></svg>