<?xml version="1.0" standalone="no"?><!DOCTYPE svg PUBLIC "-//W3C//DTD SVG 1.1//EN" "http://www.w3.org/Graphics/SVG/1.1/DTD/svg11.dtd"><svg t="1779375170293" class="icon" viewBox="0 0 1024 1024" version="1.1" xmlns="http://www.w3.org/2000/svg" p-id="1396" xmlns:xlink="http://www.w3.org/1999/xlink" width="200" height="200"><path d="M387.86152344 899.93339844h248.27695312V962H387.86152344zM480.96669922 62h62.06660156v93.10517578H480.96582031z m250.44785156 171.07910156l65.85732422-65.82392578 43.875 43.875-65.83535156 65.83447266zM853.37597656 465.44785156h93.10429688v62.06572266H853.37597656z m-775.85625 0H170.62402344v62.06572266H77.51972656z m105.33339844-254.25l43.875-43.875 65.83535156 65.83447266-43.875 43.875z m329.15214844 5.98535157a279.31464844 279.31464844 0 0 0-155.17089844 512.05429687v108.61875h310.34179688V729.2375a279.31464844 279.31464844 0 0 0-155.17089844-512.06660156zM620.62402344 684.40625l-15.51269532 9v82.39482422h-62.06660156V571.43339844l83.94697266-83.94697266-43.875-43.875-71.06572266 71.06572266-71.26875-71.30214844-43.875 43.875 84.10429688 84.10517578v204.43447266h-62.11054688v-82.39482422l-15.51445312-9a217.2375 217.2375 0 1 1 217.2375 0z" p-id="1397" fill="#DE868F"></path></svg>